<?xml version="1.0" encoding="UTF-8"?>
<svg id="Layer_1" data-name="Layer 1" xmlns="http://www.w3.org/2000/svg" viewBox="0 0 716.71 779.79">
  <path d="M36,632.87c1.83-13.7,16.7-23.58,28.07-31.48,32.17-21.74,62.91-44.41,95.91-63.9,27.37-16.12,55.75-32.35,84.89-45.53,34.99-16.16,68.1-31.56,104.38-44.94,19.22-7.31,39.07-14.97,58.1-22.08,49.95-17.84,106.11-32.85,158.16-47.65,24.37-6.58,33.67-4.14,27.23,21.85-9.26,33.95-22.52,41.93-55.01,50.35-42.67,12.38-86.07,21.95-126.66,37.57-31.6,12.1-70.99,26.71-103.27,41.63-30.91,14.41-66.16,33.75-94.53,48.88-19.01,10.04-33.53,19.1-52.21,31.42-26.98,17.43-62.08,40.91-88.4,57.45-4.78,2.8-9.64,5.42-14.57,6.12-16.76,2.02-24.54-26.44-22.13-39.5" fill="#0d7a9b"/>
  <path d="M178.33,635.1c2.1,15.11,19.08,34.92,35.85,34.02,9.52-.31,19.91-7.16,29.63-12.67,12.96-7.37,25.05-13.63,39.72-21.03,44.66-21.87,88.7-43.62,135.08-61.58,21.07-7.92,42.92-15.61,64.24-23,60.05-22.03,119.69-33.8,184.44-49.46,10.48-2.48,19.45-4.5,26.04-6.15,7.44-1.58,14-5.01,17-12.35,4.04-9.3,8.8-26.84,5.01-34.55-3.44-5.18-9.84-3.63-20.15-2.67-55.22,8.1-133.41,25.33-190.72,41.32-48.12,14.71-114.18,36.86-166.07,58.01-47.58,20.37-97.7,48.65-142.63,73.84-8.34,4.91-18.6,9.16-17.42,16.16" fill="#0d7a9b"/>
  <path d="M245.75,694.89c.55-2.39,2.16-4.69,4.61-6.94,4.79-4.31,11.36-7.82,17.29-11.08,38.39-20.04,81.02-45.46,121.92-60.76,36.37-14.26,106.62-40.93,140.84-50.97,9.46-2.78,16.07-4.37,17.96-2.05,1.51,2.15.38,4.42-1.03,8.12-1.04,2.35-2.48,5.04-4.11,7.83-4.37,7.32-9.23,14.75-14.98,21.06-6.02,6.57-12.23,10.1-22.56,15.4-7.67,3.93-15.28,7.8-23.1,11.81-32.18,16.63-64.69,32.72-95.17,51.33-16.82,10.18-34.39,21.05-51.06,31.32-12.46,7.35-22.83,15.84-36.71,14.93-13.67-.39-56.16-12.46-53.94-29.87" fill="#0d7a9b"/>
  <path d="M630.37,402.79c-28.23,8.72-8.77-123.64-11.77-146.31,3.7-104.88-2.16-128.66-101.09-170.47-114.51-43.86-265.66-42.16-379.17,5.3-36.35,14.05-72.92,37.47-81.17,77.98-13.88,78.18-8.46,166.6,7.7,244.14,23.04,98.46,78.33,188.89,156.45,253.33,39.19,31.57,87.44,64.84,140,50.64,60.52-18.5,109.77-73.43,153.52-117.14,19.14-21.42,78.7-64.78,49.87-5.58-40.03,64.96-159.58,187.04-240.96,176.45-43.99-7.8-84.16-36.83-119.98-63.19C93.9,624.03,24.57,490.5,12.63,354.07c-4.27-52.12-4.1-113.99-4.63-165.42.32-24.55-1.08-51.13,12.34-72.45l.09-.15c17.13-25.84,53.26-42.82,82.24-57.41C215.84,3.82,349.59-5.06,471.18,25.09c54.87,15.85,132.34,37.59,165.72,86.4,26.02,42.57,20.47,95.97,22.42,145.16.01,46.37,4.53,112.55-28.94,146.13Z" fill="#1c3f60" stroke="#1c3f60" stroke-miterlimit="10" stroke-width="16"/>
  <path d="M486.38,373.88c-2.58-1.61-1.04-7.43-.88-10.29,1.81-12.76,3.67-25.54,3.15-38.54.07-8.84-3.28-15.43-10.31-21.1-5.1-4.38-12.86-11.01-17.77-14.91-3.62-2.86-6.65-3.97-10.97-1.97-9.71,4.35-27.03,13.04-37.07,17.81-2.31,1.16-4.78,2.29-6.66,3.83-1.9,1.64-2.43,3.26-3.23,5.86-4.9,18.13-13.61,51.52-17.33,65.35-.72,2.26-1.08,4.84-3.08,6.08-3.59,1.42-6.83.78-11.87,1.12-16.01.46-45.6,1.28-57.95,1.64-2.64.14-5.27.09-7.47,1.5-2.14,1.36-4.21,4.58-5.77,6.96-3.95,6.65-10.1,14.77-13.3,22.21-2.97,6.86,2.28,13.92,2.67,20.53-.06,2.7-2.07,3.91-5.76,5.53-12.94,5.69-44.3,19.45-58.3,25.59-2.93,1.26-6.01,2.52-9.1,1.84-4.59-1.23-8.13-4.8-12.09-8.33-97.42-87.96-84.97-253.71,29.47-321.74,80.37-50.95,187.36-29.99,248.56,40.43,38.53,43.36,56.33,102.36,45.45,161.29-3.64,21.4-11.21,21.11-29.82,26.51-3.75,1.31-8.99,3.76-10.51,2.83l-.08-.04ZM390.99,171.38c-2.07.01-4.42,1.27-8.36,3.4-4.48,2.42-9.01,4.92-14.51,7.91-7.98,4.53-16.53,8.57-23.39,13.12-5.44,3.69-6.02,9.99-6.58,16.05-1.04,11.71-1.47,23.77-.8,35.54.32,8.97,3.22,12.21,12.07,17.25,10.72,6.64,26.71,16.57,37.82,23.45,3.62,2.18,8.21,5.36,10.35,5.29,2.26.19,4.81-1.16,9.4-3.53,4.86-2.52,9.76-5.11,15.54-8.12,7.73-4.28,16.02-7.76,22.39-12.28,5.16-3.93,4.98-10.52,5.22-16.48.21-14.29-.27-28.89-2.65-42.85-1.47-6.41-4.53-8.54-11.2-12.58-9.65-5.87-25.42-15.46-34.87-21.2-3.61-2.14-8.16-5.21-10.33-4.97h-.11ZM267.48,173.42c-22.46,3.59-44.03,22.03-55.63,41.48-2.06,3.94-6.72,13.13-.76,15.02,8.23.94,26.95-17.94,34.62-23.73,8.36-7.36,17.83-13.25,26.84-19.96,8.7-6.39,8.49-13.63-4.83-12.84l-.24.03ZM321.17,199.38c-2.06-3.03-6.09-3.58-9.57-4.12-5.62-.7-13.37-1.51-19.48-2.2-11.31-1.64-16.39.54-24.95,7.74-9.35,7.3-19.18,14.54-28,22.24-10.67,9.02-16.66,15.56-14.64,29.72.54,5.88,1.58,12.76,2.29,18.45.68,4.97,1.28,8.49,3.6,10.89,3.74,3.73,11.86,5.72,17.67,8.06,6.71,2.39,13.45,5.09,20.11,7.23,4.85,1.79,7.77-.31,11.81-3.57,3.56-2.8,7.15-5.62,10.86-8.54,9.31-7.53,20.29-15.53,28.87-23.06,6.67-6.71,4.4-15.85,3.96-25.65-.76-7.8-.91-15.56-.81-23.4-.12-4.75.53-9.83-1.63-13.67l-.09-.13ZM228.2,299.22c-2.47.23-5.98,4.42-8.74,7.7-4.07,4.86-9.03,11.2-12.92,16.39-2.82,3.86-5.66,7.29-7.23,11.68-2.42,6.91,1.08,15.43,3.71,22.97,2.73,7.49,5.52,14.95,8.46,22.53,9.86,25.43,6.95,20.12,32.78,26.49,4.96,1.12,9.97,2.26,14.81,3.33,4.61,1.06,9.22,1.9,11.84-1.86,6.03-8.49,13.29-20.4,18.32-29.15,2.12-3.85,1.13-7.48-.13-11.42-4.55-13.12-10.55-36.3-16.01-49.05-1.91-2.95-5.36-4.14-8.51-5.61-7.02-3.04-19.3-8.32-26.85-11.56-3.01-1.17-6.22-2.92-9.39-2.46l-.13.03ZM179.2,331.52c-5.27,2.73-2.91,16.59-2.27,21.81,2.98,18.55,11.46,39.13,22.94,54.38,2.18,2.79,6.01,7.51,9.45,6.45,3.12-2.13,1.3-7.76.58-11.17-3.87-14.69-13.96-42.66-19.86-57.1-1.95-4.53-5.91-15-10.73-14.41l-.11.03Z" fill="#1c3f60"/>
</svg>