<svg xmlns="http://www.w3.org/2000/svg" viewBox="0 0 1734.24 631.02"><path fill="#0d7a9b" d="M30.55 511.16c1.48-11.03 13.45-18.99 22.61-25.35 25.9-17.51 50.66-35.76 77.23-51.46 22.04-12.98 44.89-26.05 68.35-36.66 28.17-13.01 54.83-25.41 84.05-36.19 15.48-5.89 31.46-12.06 46.79-17.78 40.22-14.36 85.44-26.45 127.35-38.37 19.62-5.3 27.12-3.34 21.93 17.6-7.46 27.34-18.13 33.77-44.29 40.55-34.36 9.97-69.31 17.67-101.99 30.25-25.44 9.74-57.16 21.51-83.15 33.52-24.89 11.61-53.28 27.18-76.12 39.36-15.31 8.09-27 15.38-42.04 25.3-21.72 14.03-49.99 32.94-71.18 46.26-3.85 2.26-7.76 4.36-11.74 4.93-13.49 1.63-19.76-21.29-17.82-31.81"/><path fill="#0d7a9b" d="M145.15 512.96c1.69 12.17 15.36 28.12 28.86 27.39 7.66-.25 16.03-5.77 23.86-10.2 10.44-5.93 20.17-10.98 31.98-16.93 35.96-17.61 71.42-35.13 108.77-49.59 16.96-6.38 34.56-12.57 51.73-18.52 48.36-17.74 96.38-27.21 148.52-39.83 8.44-2 15.66-3.63 20.97-4.95 5.99-1.27 11.28-4.04 13.69-9.95 3.25-7.49 7.08-21.61 4.03-27.82-2.77-4.17-7.93-2.92-16.23-2.15-44.47 6.52-107.43 20.4-153.57 33.28-38.75 11.85-91.94 29.68-133.72 46.71-38.32 16.41-78.67 39.17-114.85 59.46-6.71 3.95-14.97 7.38-14.03 13.01M199.44 561.1c.45-1.93 1.74-3.78 3.71-5.59 3.85-3.47 9.15-6.29 13.93-8.92 30.92-16.13 65.24-36.61 98.17-48.93 29.29-11.48 85.85-32.96 113.41-41.04 7.62-2.23 12.94-3.52 14.46-1.65 1.21 1.73.31 3.56-.83 6.54-.84 1.89-2 4.06-3.31 6.3-3.52 5.9-7.43 11.87-12.06 16.96-4.85 5.29-9.84 8.13-18.17 12.4-6.18 3.17-12.3 6.28-18.6 9.51-25.91 13.39-52.09 26.34-76.63 41.33-13.55 8.2-27.69 16.95-41.11 25.22-10.03 5.92-18.39 12.76-29.56 12.02-11.01-.31-45.22-10.04-43.43-24.05"/><path fill="#1c3f60" stroke="#1c3f60" stroke-miterlimit="10" stroke-width="16" d="M509.15 325.89c-22.73 7.02-7.06-99.56-9.48-117.81 2.98-84.45-1.74-103.6-81.4-137.27-92.21-35.32-213.92-33.95-305.32 4.27-29.27 11.31-58.72 30.17-65.36 62.79-11.18 62.95-6.81 134.15 6.2 196.59 18.55 79.28 63.07 152.1 125.98 203.99 31.56 25.42 70.41 52.21 112.73 40.78 48.73-14.9 88.39-59.13 123.62-94.32 15.41-17.25 63.37-52.16 40.16-4.49-32.23 52.31-128.5 150.61-194.03 142.08-35.42-6.28-67.77-29.66-96.61-50.88-88.47-67.58-144.3-175.1-153.91-284.96-3.44-41.97-3.3-91.79-3.73-133.2.26-19.77-.87-41.17 9.94-58.34l.07-.12C31.8 74.19 60.9 60.52 84.23 48.77 175.36 4.63 283.06-2.52 380.96 21.76c44.18 12.76 106.56 30.27 133.44 69.57 20.95 34.28 16.48 77.28 18.05 116.89.01 37.34 3.65 90.63-23.3 117.67Z"/><path fill="#1c3f60" d="M393.21 302.62c-2.07-1.29-.84-5.99-.71-8.28 1.46-10.27 2.96-20.56 2.54-31.03.06-7.12-2.64-12.43-8.3-16.99-4.1-3.53-10.35-8.86-14.31-12-2.91-2.3-5.36-3.2-8.83-1.58-7.82 3.5-21.77 10.5-29.85 14.34-1.86.94-3.85 1.84-5.36 3.08-1.53 1.32-1.95 2.63-2.6 4.72-3.95 14.6-10.96 41.48-13.96 52.63-.58 1.82-.87 3.9-2.48 4.89-2.89 1.14-5.5.63-9.56.9-12.89.37-36.72 1.03-46.66 1.32-2.13.11-4.24.07-6.01 1.2-1.73 1.1-3.39 3.69-4.65 5.6-3.18 5.35-8.14 11.89-10.71 17.88-2.39 5.52 1.84 11.21 2.15 16.53-.05 2.18-1.66 3.15-4.64 4.46-10.42 4.58-35.67 15.66-46.95 20.6-2.36 1.01-4.84 2.03-7.33 1.48-3.69-.99-6.55-3.86-9.74-6.7-78.44-70.82-68.42-204.29 23.73-259.08 64.72-41.03 150.87-24.15 200.15 32.55 31.02 34.92 45.36 82.42 36.6 129.87-2.93 17.23-9.02 17-24.01 21.35-3.02 1.06-7.24 3.02-8.46 2.28l-.07-.03ZM316.4 139.56c-1.66 0-3.56 1.03-6.73 2.74-3.61 1.95-7.26 3.96-11.68 6.37-6.43 3.65-13.31 6.9-18.83 10.57-4.38 2.97-4.84 8.05-5.3 12.93-.84 9.43-1.18 19.14-.64 28.62.26 7.23 2.6 9.83 9.72 13.89 8.63 5.35 21.51 13.34 30.45 18.88 2.92 1.76 6.61 4.32 8.33 4.26 1.82.15 3.87-.93 7.57-2.84 3.92-2.03 7.86-4.11 12.52-6.54 6.23-3.44 12.9-6.25 18.03-9.89 4.16-3.17 4.01-8.47 4.21-13.27.17-11.51-.22-23.27-2.14-34.5-1.18-5.17-3.65-6.88-9.02-10.13-7.77-4.73-20.47-12.44-28.08-17.07-2.91-1.72-6.57-4.2-8.31-4h-.09Zm-99.46 1.64c-18.08 2.89-35.45 17.74-44.8 33.4-1.66 3.17-5.41 10.57-.61 12.09 6.63.76 21.7-14.45 27.88-19.11 6.73-5.92 14.35-10.67 21.62-16.07 7-5.14 6.84-10.98-3.89-10.34l-.19.02Zm43.23 20.91c-1.66-2.44-4.9-2.89-7.71-3.32-4.53-.56-10.77-1.21-15.69-1.77-9.11-1.32-13.2.44-20.09 6.24-7.53 5.88-15.44 11.71-22.55 17.91-8.59 7.26-13.42 12.53-11.79 23.93.43 4.74 1.27 10.28 1.84 14.86.55 4 1.03 6.84 2.9 8.77 3.01 3.01 9.55 4.61 14.23 6.49 5.4 1.93 10.83 4.1 16.2 5.83 3.91 1.44 6.26-.25 9.51-2.87 2.87-2.25 5.76-4.53 8.74-6.88 7.49-6.07 16.34-12.5 23.25-18.57 5.37-5.4 3.55-12.76 3.19-20.66-.61-6.28-.74-12.53-.65-18.84-.1-3.82.43-7.92-1.31-11.01zm-74.86 80.39c-1.99.18-4.82 3.56-7.04 6.2-3.27 3.91-7.27 9.02-10.4 13.2-2.27 3.11-4.56 5.87-5.82 9.4-1.95 5.56.87 12.42 2.99 18.5 2.2 6.03 4.44 12.04 6.81 18.14 7.94 20.47 5.6 16.2 26.39 21.33 4 .9 8.02 1.82 11.92 2.69 3.71.86 7.43 1.53 9.53-1.5 4.85-6.83 10.7-16.43 14.75-23.47 1.71-3.1.91-6.02-.1-9.2-3.66-10.56-8.49-29.23-12.89-39.5-1.53-2.38-4.31-3.33-6.86-4.52-5.65-2.45-15.54-6.7-21.62-9.31-2.42-.94-5.01-2.35-7.56-1.98l-.11.02Zm-39.46 26.01c-4.24 2.19-2.34 13.36-1.83 17.56 2.4 14.94 9.23 31.51 18.47 43.79 1.75 2.24 4.84 6.05 7.61 5.19 2.51-1.72 1.05-6.25.47-8.99-3.11-11.83-11.24-34.35-15.99-45.98-1.57-3.65-4.76-12.08-8.64-11.6l-.09.02ZM603.7 270.96v-6.18c0-4.32 2.16-6.49 6.49-6.49h26.26c4.32 0 6.49 2.16 6.49 6.49v2.47c0 7.83 1.54 13.18 4.63 16.06 3.09 2.89 8.75 4.32 16.99 4.32h14.52c8.03 0 13.64-1.54 16.83-4.63s4.79-8.85 4.79-17.3v-3.71c0-5.97-2.42-10.55-7.26-13.75-4.84-3.19-10.86-5.1-18.07-5.71-7.21-.62-14.98-1.8-23.32-3.55s-16.12-4.02-23.32-6.8c-7.21-2.78-13.23-8.23-18.07-16.37q-7.26-12.195-7.26-31.35v-10.81q0-24.09 13.59-37.38c9.06-8.85 21.62-13.28 37.69-13.28h30.89c16.27 0 28.93 4.43 37.99 13.28 9.06 8.86 13.59 21.31 13.59 37.38v5.87c0 4.32-2.16 6.49-6.49 6.49H704.4c-4.32 0-6.49-2.16-6.49-6.49v-1.85c0-8.03-1.54-13.49-4.63-16.37s-8.75-4.32-16.99-4.32h-12.05c-8.45 0-14.16 1.6-17.14 4.79-2.99 3.19-4.48 9.42-4.48 18.69v5.87c0 9.68 8.44 15.24 25.33 16.68 17.5 1.44 33.05 4.94 46.64 10.5 7.21 3.09 13.23 8.6 18.07 16.53s7.26 18.07 7.26 30.43v10.5q0 24.09-13.59 37.38c-9.06 8.86-21.62 13.28-37.68 13.28h-33.67c-16.06 0-28.63-4.43-37.69-13.28q-13.59-13.275-13.59-37.38ZM857.61 321.62h-34.6c-16.27 0-28.83-4.32-37.69-12.97s-13.28-21.11-13.28-37.38v-97.92c0-16.27 4.43-28.73 13.28-37.38S806.74 123 823.01 123h34.6c16.27 0 28.83 4.32 37.69 12.97 8.85 8.65 13.28 21.11 13.28 37.38v97.92c0 16.27-4.43 28.73-13.28 37.38-8.86 8.65-21.42 12.97-37.69 12.97m-28.42-33.98h21.93c6.59 0 11.27-1.39 14.05-4.17s4.17-7.46 4.17-14.05v-94.21c0-6.59-1.39-11.27-4.17-14.05s-7.47-4.17-14.05-4.17h-21.93c-6.59 0-11.23 1.39-13.9 4.17-2.68 2.78-4.02 7.47-4.02 14.05v94.21c0 6.59 1.34 11.27 4.02 14.05 2.67 2.78 7.31 4.17 13.9 4.17M1027.19 321.62h-33.67c-16.27 0-28.83-4.32-37.69-12.97s-13.28-21.11-13.28-37.38v-97.92c0-16.27 4.43-28.73 13.28-37.38S977.25 123 993.52 123h33.67c16.06 0 28.57 4.38 37.53 13.13 8.96 8.76 13.44 21.16 13.44 37.22v14.52c0 4.53-2.27 6.8-6.79 6.8h-25.95c-4.32 0-6.49-2.26-6.49-6.8v-12.66c0-6.59-1.39-11.27-4.17-14.05s-7.47-4.17-14.05-4.17h-21c-6.39 0-10.97 1.39-13.75 4.17s-4.17 7.47-4.17 14.05v94.21c0 6.59 1.39 11.27 4.17 14.05s7.36 4.17 13.75 4.17h21c6.59 0 11.27-1.39 14.05-4.17s4.17-7.46 4.17-14.05v-12.66c0-4.53 2.16-6.8 6.49-6.8h25.95c4.53 0 6.79 2.27 6.79 6.8v14.52c0 16.06-4.48 28.47-13.44 37.22s-21.47 13.13-37.53 13.13ZM1193.37 321.62h-33.67c-16.27 0-28.83-4.32-37.69-12.97s-13.28-21.11-13.28-37.38v-97.92c0-16.27 4.43-28.73 13.28-37.38S1143.43 123 1159.7 123h33.67c16.06 0 28.57 4.38 37.53 13.13 8.96 8.76 13.44 21.16 13.44 37.22v14.52c0 4.53-2.27 6.8-6.79 6.8h-25.95c-4.32 0-6.49-2.26-6.49-6.8v-12.66c0-6.59-1.39-11.27-4.17-14.05s-7.47-4.17-14.05-4.17h-21c-6.39 0-10.97 1.39-13.75 4.17s-4.17 7.47-4.17 14.05v94.21c0 6.59 1.39 11.27 4.17 14.05s7.36 4.17 13.75 4.17h21c6.59 0 11.27-1.39 14.05-4.17s4.17-7.46 4.17-14.05v-12.66c0-4.53 2.16-6.8 6.49-6.8h25.95c4.53 0 6.79 2.27 6.79 6.8v14.52c0 16.06-4.48 28.47-13.44 37.22s-21.47 13.13-37.53 13.13ZM1385.5 321.62h-101.01c-4.32 0-6.49-2.16-6.49-6.49V129.48c0-4.32 2.16-6.49 6.49-6.49h101.01c4.12 0 6.18 2.16 6.18 6.49v21c0 4.32-2.06 6.49-6.18 6.49h-64.56c-2.47 0-3.71 1.13-3.71 3.4v40.16c0 2.27 1.24 3.4 3.71 3.4h52.82c4.32 0 6.49 2.16 6.49 6.49v21c0 4.32-2.16 6.49-6.49 6.49h-52.82c-2.47 0-3.71 1.13-3.71 3.4v42.94c0 2.27 1.24 3.4 3.71 3.4h64.56c4.12 0 6.18 2.16 6.18 6.49v21c0 4.32-2.06 6.49-6.18 6.49ZM1458.7 321.62h-26.26c-4.32 0-6.49-2.16-6.49-6.49V129.48c0-4.32 2.16-6.49 6.49-6.49h73.52c16.06 0 28.62 4.43 37.69 13.28 9.06 8.86 13.59 21.31 13.59 37.38v24.09c0 23.27-9.17 38.72-27.49 46.33v1.24l33.05 68.88q2.775 7.41-5.25 7.41h-25.02c-3.71 0-6.39-.41-8.03-1.24-1.65-.82-2.99-2.57-4.01-5.25l-30.89-66.72h-20.7c-2.47 0-3.71 1.13-3.71 3.4v63.32c0 4.32-2.16 6.49-6.49 6.49Zm9.89-104.71h30.27q9.885 0 14.52-4.17c3.09-2.78 4.63-7.26 4.63-13.44v-24.09c0-6.38-1.54-11.01-4.63-13.9q-4.635-4.32-14.52-4.32h-30.27c-2.27 0-3.4 1.13-3.4 3.4v53.13c0 2.27 1.13 3.4 3.4 3.4Z"/><path fill="#0d7a9b" d="M690.19 565.21h-33.67c-16.27 0-28.83-4.32-37.69-12.97s-13.28-21.11-13.28-37.38v-97.92c0-16.26 4.43-28.73 13.28-37.38s21.42-12.97 37.69-12.97h33.67c16.06 0 28.57 4.38 37.53 13.13 8.96 8.76 13.44 21.16 13.44 37.22v14.52c0 4.53-2.27 6.8-6.8 6.8h-25.95c-4.32 0-6.49-2.26-6.49-6.8v-12.67c0-6.59-1.39-11.27-4.17-14.05s-7.47-4.17-14.05-4.17h-21c-6.39 0-10.97 1.39-13.75 4.17s-4.17 7.47-4.17 14.05V513c0 6.59 1.39 11.27 4.17 14.05s7.36 4.17 13.75 4.17h21c6.59 0 11.27-1.39 14.05-4.17s4.17-7.46 4.17-14.05v-12.66c0-4.53 2.16-6.8 6.49-6.8h25.95c4.53 0 6.8 2.27 6.8 6.8v14.52c0 16.06-4.48 28.47-13.44 37.22-8.96 8.76-21.47 13.13-37.53 13.13M857.3 565.21h-34.6c-16.27 0-28.83-4.32-37.69-12.97s-13.28-21.11-13.28-37.38v-97.92c0-16.26 4.43-28.73 13.28-37.38s21.42-12.97 37.69-12.97h34.6c16.26 0 28.83 4.32 37.69 12.97 8.85 8.65 13.28 21.11 13.28 37.38v97.92c0 16.27-4.43 28.73-13.28 37.38-8.86 8.65-21.42 12.97-37.69 12.97m-28.42-33.97h21.93c6.59 0 11.27-1.39 14.05-4.17s4.17-7.46 4.17-14.05v-94.21c0-6.59-1.39-11.27-4.17-14.05s-7.47-4.17-14.05-4.17h-21.93c-6.59 0-11.23 1.39-13.9 4.17-2.68 2.78-4.02 7.47-4.02 14.05v94.21c0 6.59 1.34 11.27 4.02 14.05 2.67 2.78 7.31 4.17 13.9 4.17M977.46 565.21h-25.64c-4.32 0-6.49-2.16-6.49-6.49V373.07c0-4.32 2.16-6.49 6.49-6.49h23.17c4.32 0 7.21 1.44 8.65 4.32l62.4 117.07h1.24V373.06c0-4.32 2.16-6.49 6.49-6.49h25.64c4.32 0 6.49 2.16 6.49 6.49v185.65c0 4.32-2.16 6.49-6.49 6.49h-22.55c-4.53 0-7.83-2.06-9.88-6.18L985.2 444.11h-1.24v114.6c0 4.32-2.16 6.49-6.49 6.49ZM1158.15 565.21h-25.64c-4.32 0-6.49-2.16-6.49-6.49V373.07c0-4.32 2.16-6.49 6.49-6.49h23.17c4.32 0 7.21 1.44 8.65 4.32l62.4 117.07h1.24V373.06c0-4.32 2.16-6.49 6.49-6.49h25.64c4.32 0 6.49 2.16 6.49 6.49v185.65c0 4.32-2.16 6.49-6.49 6.49h-22.55c-4.53 0-7.83-2.06-9.88-6.18l-61.78-114.91h-1.23v114.6c0 4.32-2.16 6.49-6.49 6.49ZM1414.23 565.21h-101.01c-4.32 0-6.49-2.16-6.49-6.49V373.07c0-4.32 2.16-6.49 6.49-6.49h101.01c4.12 0 6.18 2.16 6.18 6.49v21c0 4.32-2.06 6.49-6.18 6.49h-64.56c-2.47 0-3.71 1.13-3.71 3.4v40.16c0 2.27 1.24 3.4 3.71 3.4h52.82c4.32 0 6.49 2.16 6.49 6.49v21c0 4.32-2.16 6.49-6.49 6.49h-52.82c-2.47 0-3.71 1.13-3.71 3.4v42.94c0 2.27 1.24 3.4 3.71 3.4h64.56c4.12 0 6.18 2.16 6.18 6.49v21c0 4.32-2.06 6.49-6.18 6.49ZM1536.24 565.21h-33.67c-16.27 0-28.83-4.32-37.69-12.97s-13.28-21.11-13.28-37.38v-97.92c0-16.26 4.43-28.73 13.28-37.38s21.42-12.97 37.69-12.97h33.67c16.06 0 28.57 4.38 37.53 13.13 8.96 8.76 13.44 21.16 13.44 37.22v14.52c0 4.53-2.27 6.8-6.8 6.8h-25.95c-4.32 0-6.49-2.26-6.49-6.8v-12.67c0-6.59-1.39-11.27-4.17-14.05s-7.47-4.17-14.05-4.17h-21.01c-6.38 0-10.97 1.39-13.74 4.17-2.78 2.78-4.17 7.47-4.17 14.05V513c0 6.59 1.39 11.27 4.17 14.05q4.17 4.17 13.74 4.17h21.01c6.59 0 11.27-1.39 14.05-4.17s4.17-7.46 4.17-14.05v-12.66c0-4.53 2.16-6.8 6.49-6.8h25.95c4.53 0 6.8 2.27 6.8 6.8v14.52c0 16.06-4.48 28.47-13.44 37.22-8.96 8.76-21.47 13.13-37.53 13.13M1682.34 565.21h-25.95c-4.53 0-6.8-2.16-6.8-6.49V403.96c0-2.26-1.13-3.4-3.4-3.4h-35.21c-4.32 0-6.49-2.16-6.49-6.49v-21c0-4.32 2.16-6.49 6.49-6.49h116.76c4.32 0 6.49 2.16 6.49 6.49v21c0 4.32-2.16 6.49-6.49 6.49h-35.21c-2.47 0-3.71 1.13-3.71 3.4v154.76c0 4.32-2.16 6.49-6.49 6.49Z"/></svg>